<svg width="22" height="16" viewBox="0 0 22 16" fill="none" xmlns="http://www.w3.org/2000/svg">
<rect width="22" height="16" rx="2" fill="white"/>
<mask id="mask0_401_4863" style="mask-type:alpha" maskUnits="userSpaceOnUse" x="0" y="0" width="22" height="16">
<rect width="22" height="16" rx="2" fill="white"/>
</mask>
<g mask="url(#mask0_401_4863)">
<path fill-rule="evenodd" clip-rule="evenodd" d="M22 0H0V1.06667H22V0ZM22 2.13333H0V3.2H22V2.13333ZM0 4.26667H22V5.33333H0V4.26667ZM22 6.4H0V7.46667H22V6.4ZM0 8.53333H22V9.6H0V8.53333ZM22 10.6667H0V11.7333H22V10.6667ZM0 12.8H22V13.8667H0V12.8ZM22 14.9333H0V16H22V14.9333Z" fill="#D02F44"/>
<rect width="9.42857" height="7.46667" fill="#46467F"/>
<g filter="url(#filter0_d_401_4863)">
<path fill-rule="evenodd" clip-rule="evenodd" d="M2.09524 1.59998C2.09524 1.89454 1.86072 2.13332 1.57143 2.13332C1.28214 2.13332 1.04762 1.89454 1.04762 1.59998C1.04762 1.30543 1.28214 1.06665 1.57143 1.06665C1.86072 1.06665 2.09524 1.30543 2.09524 1.59998ZM4.19048 1.59998C4.19048 1.89454 3.95596 2.13332 3.66667 2.13332C3.37737 2.13332 3.14286 1.89454 3.14286 1.59998C3.14286 1.30543 3.37737 1.06665 3.66667 1.06665C3.95596 1.06665 4.19048 1.30543 4.19048 1.59998ZM5.76191 2.13332C6.0512 2.13332 6.28571 1.89454 6.28571 1.59998C6.28571 1.30543 6.0512 1.06665 5.76191 1.06665C5.47261 1.06665 5.2381 1.30543 5.2381 1.59998C5.2381 1.89454 5.47261 2.13332 5.76191 2.13332ZM8.38095 1.59998C8.38095 1.89454 8.14644 2.13332 7.85714 2.13332C7.56785 2.13332 7.33333 1.89454 7.33333 1.59998C7.33333 1.30543 7.56785 1.06665 7.85714 1.06665C8.14644 1.06665 8.38095 1.30543 8.38095 1.59998ZM2.61905 3.19998C2.90834 3.19998 3.14286 2.9612 3.14286 2.66665C3.14286 2.3721 2.90834 2.13332 2.61905 2.13332C2.32976 2.13332 2.09524 2.3721 2.09524 2.66665C2.09524 2.9612 2.32976 3.19998 2.61905 3.19998ZM5.2381 2.66665C5.2381 2.9612 5.00358 3.19998 4.71429 3.19998C4.42499 3.19998 4.19048 2.9612 4.19048 2.66665C4.19048 2.3721 4.42499 2.13332 4.71429 2.13332C5.00358 2.13332 5.2381 2.3721 5.2381 2.66665ZM6.80952 3.19998C7.09882 3.19998 7.33333 2.9612 7.33333 2.66665C7.33333 2.3721 7.09882 2.13332 6.80952 2.13332C6.52023 2.13332 6.28571 2.3721 6.28571 2.66665C6.28571 2.9612 6.52023 3.19998 6.80952 3.19998ZM8.38095 3.73332C8.38095 4.02787 8.14644 4.26665 7.85714 4.26665C7.56785 4.26665 7.33333 4.02787 7.33333 3.73332C7.33333 3.43877 7.56785 3.19998 7.85714 3.19998C8.14644 3.19998 8.38095 3.43877 8.38095 3.73332ZM5.76191 4.26665C6.0512 4.26665 6.28571 4.02787 6.28571 3.73332C6.28571 3.43877 6.0512 3.19998 5.76191 3.19998C5.47261 3.19998 5.2381 3.43877 5.2381 3.73332C5.2381 4.02787 5.47261 4.26665 5.76191 4.26665ZM4.19048 3.73332C4.19048 4.02787 3.95596 4.26665 3.66667 4.26665C3.37737 4.26665 3.14286 4.02787 3.14286 3.73332C3.14286 3.43877 3.37737 3.19998 3.66667 3.19998C3.95596 3.19998 4.19048 3.43877 4.19048 3.73332ZM1.57143 4.26665C1.86072 4.26665 2.09524 4.02787 2.09524 3.73332C2.09524 3.43877 1.86072 3.19998 1.57143 3.19998C1.28214 3.19998 1.04762 3.43877 1.04762 3.73332C1.04762 4.02787 1.28214 4.26665 1.57143 4.26665ZM3.14286 4.79998C3.14286 5.09454 2.90834 5.33332 2.61905 5.33332C2.32976 5.33332 2.09524 5.09454 2.09524 4.79998C2.09524 4.50543 2.32976 4.26665 2.61905 4.26665C2.90834 4.26665 3.14286 4.50543 3.14286 4.79998ZM4.71429 5.33332C5.00358 5.33332 5.2381 5.09454 5.2381 4.79998C5.2381 4.50543 5.00358 4.26665 4.71429 4.26665C4.42499 4.26665 4.19048 4.50543 4.19048 4.79998C4.19048 5.09454 4.42499 5.33332 4.71429 5.33332ZM7.33333 4.79998C7.33333 5.09454 7.09882 5.33332 6.80952 5.33332C6.52023 5.33332 6.28571 5.09454 6.28571 4.79998C6.28571 4.50543 6.52023 4.26665 6.80952 4.26665C7.09882 4.26665 7.33333 4.50543 7.33333 4.79998ZM7.85714 6.39998C8.14644 6.39998 8.38095 6.1612 8.38095 5.86665C8.38095 5.5721 8.14644 5.33332 7.85714 5.33332C7.56785 5.33332 7.33333 5.5721 7.33333 5.86665C7.33333 6.1612 7.56785 6.39998 7.85714 6.39998ZM6.28571 5.86665C6.28571 6.1612 6.0512 6.39998 5.76191 6.39998C5.47261 6.39998 5.2381 6.1612 5.2381 5.86665C5.2381 5.5721 5.47261 5.33332 5.76191 5.33332C6.0512 5.33332 6.28571 5.5721 6.28571 5.86665ZM3.66667 6.39998C3.95596 6.39998 4.19048 6.1612 4.19048 5.86665C4.19048 5.5721 3.95596 5.33332 3.66667 5.33332C3.37737 5.33332 3.14286 5.5721 3.14286 5.86665C3.14286 6.1612 3.37737 6.39998 3.66667 6.39998ZM2.09524 5.86665C2.09524 6.1612 1.86072 6.39998 1.57143 6.39998C1.28214 6.39998 1.04762 6.1612 1.04762 5.86665C1.04762 5.5721 1.28214 5.33332 1.57143 5.33332C1.86072 5.33332 2.09524 5.5721 2.09524 5.86665Z" fill="url(#paint0_linear_401_4863)"/>
</g>
</g>
<defs>
<filter id="filter0_d_401_4863" x="1.04762" y="1.06665" width="7.33333" height="6.33337" filterUnits="userSpaceOnUse" color-interpolation-filters="sRGB">
<feFlood flood-opacity="0" result="BackgroundImageFix"/>
<feColorMatrix in="SourceAlpha" type="matrix" values="0 0 0 0 0 0 0 0 0 0 0 0 0 0 0 0 0 0 127 0" result="hardAlpha"/>
<feOffset dy="1"/>
<feColorMatrix type="matrix" values="0 0 0 0 0 0 0 0 0 0 0 0 0 0 0 0 0 0 0.06 0"/>
<feBlend mode="normal" in2="BackgroundImageFix" result="effect1_dropShadow_401_4863"/>
<feBlend mode="normal" in="SourceGraphic" in2="effect1_dropShadow_401_4863" result="shape"/>
</filter>
<linearGradient id="paint0_linear_401_4863" x1="1.04762" y1="1.06665" x2="1.04762" y2="6.39998" gradientUnits="userSpaceOnUse">
<stop stop-color="white"/>
<stop offset="1" stop-color="#F0F0F0"/>
</linearGradient>
</defs>
</svg>
